# xmcd
#
# Track frame offsets: 
#        150
#        22467
#        47097
#        69682
#        93555
#        115660
#        135740
#        169047
#        171085
#        193035
#        194460
#        220532
#        223602
#        246627
#
# Disc length: 3557 seconds
#
# Revision: 2
# Processed by: cddbd v1.4PL0 Copyright (c) Steve Scherf et al.
# Submitted via: ExactAudioCopy v0.95a3
#
DISCID=d90de30e
DTITLE=Chieli Minucci - Renaissance
DYEAR=1996
DGENRE=Jazz
TTITLE0=Big Sky Country
TTITLE1=Renaissance
TTITLE2=Cause We've Ended As Lovers
TTITLE3=Come As You Are
TTITLE4=Anything And Everything
TTITLE5=Shine
TTITLE6=In Your Arms
TTITLE7=Spirit
TTITLE8=The Sun Will Always Shine
TTITLE9=Cacoutra
TTITLE10=Leilani
TTITLE11=Mixomelodia
TTITLE12=Reunion
TTITLE13=Faith
EXTD=
EXTT0=
EXTT1=
EXTT2=
EXTT3=
EXTT4=
EXTT5=
EXTT6=
EXTT7=
EXTT8=
EXTT9=
EXTT10=
EXTT11=
EXTT12=
EXTT13=
PLAYORDER=
